<svg width="16" height="17" viewBox="0 0 16 17" fill="none" xmlns="http://www.w3.org/2000/svg">
<path d="M6.3999 2.6429L8.05916 0.851852L9.71843 2.6429V4.31454V6.22498L8.65176 7.29961L8.05916 7.89662L7.46657 7.29961L6.3999 6.22498V4.55334V2.6429Z" fill="#6AB8E8"/>
<path d="M10.7851 10.5235L9.00732 8.85183L10.7851 7.18019H12.4444H14.3407L15.4073 8.25481L15.9999 8.85183L15.4073 9.44884L14.3407 10.5235H12.6814H10.7851Z" fill="#F0B60A"/>
<path d="M6.3999 11.5981L8.05916 9.80707L9.71843 11.5981V13.2698V15.1802L8.65176 16.2548L8.05916 16.8518L7.46657 16.2548L6.3999 15.1802V13.5086V11.5981Z" fill="#EC6C21"/>
<path d="M1.80791 10.5235L0 8.85183L1.80791 7.18019H3.4953H5.42374L6.50848 8.25481L7.11112 8.85183L6.50848 9.44884L5.42374 10.5235H3.73635H1.80791Z" fill="#C00D6D"/>
<path d="M1.88916 3.65001C1.88916 3.09772 2.33688 2.65001 2.88916 2.65001H4.69588C5.24816 2.65001 5.69588 3.09772 5.69588 3.65001V6.45673H2.88916C2.33688 6.45673 1.88916 6.00901 1.88916 5.45673V3.65001Z" fill="#233567"/>
<path d="M14.229 3.65001C14.229 3.09772 13.7813 2.65001 13.229 2.65001H11.4223C10.87 2.65001 10.4223 3.09772 10.4223 3.65001V6.45673H13.229C13.7813 6.45673 14.229 6.00901 14.229 5.45673V3.65001Z" fill="#0A6DAE"/>
<path d="M14.229 14.0536C14.229 14.6059 13.7813 15.0536 13.229 15.0536H11.4223C10.87 15.0536 10.4223 14.6059 10.4223 14.0536V11.2469H13.229C13.7813 11.2469 14.229 11.6946 14.229 12.2469V14.0536Z" fill="#BE1818"/>
<path d="M1.88916 14.0536C1.88916 14.6059 2.33688 15.0536 2.88916 15.0536H4.69588C5.24816 15.0536 5.69588 14.6059 5.69588 14.0536V11.2469H2.88916C2.33688 11.2469 1.88916 11.6946 1.88916 12.2469V14.0536Z" fill="#B21C1B"/>
</svg>
