<svg width="528" height="524" viewBox="0 0 528 524" fill="none" xmlns="http://www.w3.org/2000/svg">
<path d="M214.648 58.0032L268.785 0L322.921 58.0032V112.14V174.01L288.119 208.812L268.785 228.146L249.45 208.812L214.648 174.01V119.873V58.0032Z" fill="#6AB8E8" fill-opacity="0.3"/>
<path d="M357.723 313.217L299.72 259.08L357.723 204.944H411.86H473.73L508.532 239.746L527.866 259.08L508.532 278.415L473.73 313.217H419.594H357.723Z" fill="#F0B60A" fill-opacity="0.3"/>
<path d="M214.648 348.02L268.785 290.017L322.921 348.02V402.156V464.026L288.119 498.828L268.785 518.163L249.45 498.828L214.648 464.026V409.89V348.02Z" fill="#EC6C21" fill-opacity="0.3"/>
<path d="M64.8237 313.217L5.8374 259.08L64.8237 204.944H119.878H182.796L218.188 239.746L237.85 259.08L218.188 278.415L182.796 313.217H127.742H64.8237Z" fill="#C00D6D" fill-opacity="0.3"/>
<path d="M67.7075 88.004C67.7075 71.4355 81.139 58.004 97.7075 58.004H161.448C178.016 58.004 191.448 71.4355 191.448 88.004V181.744H97.7075C81.139 181.744 67.7075 168.313 67.7075 151.744V88.004Z" fill="#233567" fill-opacity="0.3"/>
<path d="M469.863 88.004C469.863 71.4355 456.432 58.004 439.863 58.004H376.123C359.555 58.004 346.123 71.4355 346.123 88.004V181.744H439.863C456.432 181.744 469.863 168.313 469.863 151.744V88.004Z" fill="#0A6DAE" fill-opacity="0.3"/>
<path d="M469.863 430.157C469.863 446.726 456.432 460.157 439.863 460.157H376.123C359.555 460.157 346.123 446.726 346.123 430.157V336.417H439.863C456.432 336.417 469.863 349.848 469.863 366.417V430.157Z" fill="#BE1818" fill-opacity="0.3"/>
<path d="M67.7075 430.157C67.7075 446.726 81.139 460.157 97.7075 460.157H161.448C178.016 460.157 191.448 446.726 191.448 430.157V336.417H97.7075C81.139 336.417 67.7075 349.848 67.7075 366.417V430.157Z" fill="#B21C1B" fill-opacity="0.3"/>
<path d="M208.811 63.8406L262.947 5.83739L317.084 63.8406V117.977V179.847L282.282 214.649L262.947 233.983L243.613 214.649L208.811 179.847V125.711V63.8406Z" fill="#6AB8E8"/>
<path d="M351.886 319.054L293.883 264.918L351.886 210.781H406.022H467.893L502.694 245.583L522.029 264.918L502.694 284.252L467.893 319.054H413.756H351.886Z" fill="#F0B60A"/>
<path d="M208.811 353.857L262.947 295.854L317.084 353.857V407.994V469.864L282.282 504.666L262.947 524L243.613 504.666L208.811 469.864V415.727V353.857Z" fill="#EC6C21"/>
<path d="M58.9863 319.054L0 264.918L58.9863 210.781H114.04H176.959L212.351 245.583L232.013 264.918L212.351 284.252L176.959 319.054H121.905H58.9863Z" fill="#C00D6D"/>
<path d="M61.8701 93.8414C61.8701 77.2729 75.3016 63.8414 91.8701 63.8414H155.61C172.179 63.8414 185.61 77.2729 185.61 93.8414V187.582H91.8701C75.3016 187.582 61.8701 174.15 61.8701 157.582V93.8414Z" fill="#233567"/>
<path d="M464.026 93.8414C464.026 77.2729 450.594 63.8414 434.026 63.8414H370.286C353.717 63.8414 340.286 77.2729 340.286 93.8414V187.582H434.026C450.594 187.582 464.026 174.15 464.026 157.582V93.8414Z" fill="#0A6DAE"/>
<path d="M464.026 435.995C464.026 452.563 450.594 465.995 434.026 465.995H370.286C353.717 465.995 340.286 452.563 340.286 435.995V342.254H434.026C450.594 342.254 464.026 355.686 464.026 372.254V435.995Z" fill="#BE1818"/>
<path d="M61.8701 435.995C61.8701 452.563 75.3016 465.995 91.8701 465.995H155.61C172.179 465.995 185.61 452.563 185.61 435.995V342.254H91.8701C75.3016 342.254 61.8701 355.686 61.8701 372.254V435.995Z" fill="#B21C1B"/>
</svg>
